<svg width="38" height="37" viewBox="0 0 38 37" fill="none" xmlns="http://www.w3.org/2000/svg">
<g clip-path="url(#clip0_1_352)">
<path d="M18.6759 0C8.46559 0 0.188721 8.2826 0.188721 18.5C0.188721 28.7174 8.46559 37 18.6759 37C28.8862 37 37.1631 28.7174 37.1631 18.5C37.1631 8.2826 28.8862 0 18.6759 0ZM14.1504 26.1679H10.4067V14.112H14.1504V26.1679ZM12.2555 12.632C11.073 12.632 10.3085 11.7937 10.3085 10.757C10.3085 9.69901 11.0962 8.88578 12.3036 8.88578C13.511 8.88578 14.2505 9.69901 14.2736 10.757C14.2736 11.7937 13.511 12.632 12.2555 12.632ZM27.8232 26.1679H24.0796V19.4867C24.0796 17.9315 23.5365 16.8755 22.1827 16.8755C21.1486 16.8755 20.5343 17.5904 20.2627 18.2784C20.1626 18.5231 20.1375 18.87 20.1375 19.2149V26.1659H16.392V17.9566C16.392 16.4515 16.3438 15.1931 16.2938 14.1101H19.5463L19.7177 15.7847H19.7928C20.2858 14.9985 21.4933 13.8384 23.5134 13.8384C25.9764 13.8384 27.8232 15.4899 27.8232 19.0396V26.1679Z" fill="white"/>
</g>
<defs>
<clipPath id="clip0_1_352">
<rect width="38" height="37" fill="white"/>
</clipPath>
</defs>
</svg>
