<svg width="38" height="38" viewBox="0 0 38 38" fill="none" xmlns="http://www.w3.org/2000/svg">
<g clip-path="url(#clip0_1_358)">
<path d="M19.4227 37.3556C29.6826 37.3556 37.9999 29.0383 37.9999 18.7784C37.9999 8.51847 29.6826 0.201172 19.4227 0.201172C9.16276 0.201172 0.845459 8.51847 0.845459 18.7784C0.845459 29.0383 9.16276 37.3556 19.4227 37.3556Z" fill="white"/>
<path d="M27.6468 13.722V13.7128C27.8087 13.6495 27.9363 13.5154 28.0648 13.4161C28.645 12.9688 29.0223 12.3798 29.3005 11.6269C29.143 11.7134 28.9849 11.7999 28.8268 11.8864C28.3392 12.134 27.512 12.4898 26.8753 12.5444C26.1251 11.8605 25.3402 11.3227 23.8649 11.3485C23.71 11.3671 23.5552 11.3857 23.4003 11.4042C23.0995 11.4701 22.8129 11.5517 22.5544 11.6637C21.4742 12.1328 20.7377 13.008 20.3989 14.2222C20.2641 14.7052 20.2092 15.5124 20.3804 16.0114C19.7709 16.0105 19.1809 15.9144 18.6707 15.7888C16.6597 15.2938 15.4072 14.6251 14.0166 13.5366C13.6082 13.217 13.2076 12.8547 12.883 12.4521C12.7783 12.3224 12.6132 12.2086 12.5393 12.0533C12.5329 12.0504 12.5268 12.0472 12.5207 12.044C12.3591 12.3436 12.2074 12.6681 12.112 13.0358C11.7349 14.4854 12.331 15.7028 12.9668 16.4935C13.1594 16.7333 13.4718 16.8819 13.6636 17.1054H13.6821C13.538 17.1588 13.2874 17.0848 13.1618 17.059C12.8647 16.9977 12.6115 16.9414 12.3626 16.8366C12.2327 16.7748 12.1024 16.713 11.9725 16.6511C11.9664 18.2526 12.7748 19.2935 13.7657 19.9141C14.0888 20.1164 14.5407 20.3889 15.0106 20.4145C14.7592 20.627 13.6836 20.5294 13.3103 20.4888C13.777 21.6911 14.494 22.4916 15.726 22.9265C16.0439 23.0388 16.4317 23.1381 16.8595 23.1305C16.6324 23.4005 16.1477 23.6205 15.8281 23.8071C15.169 24.1929 14.4038 24.4431 13.5423 24.6324C13.1969 24.7078 12.8296 24.6925 12.4552 24.7525C12.0412 24.8193 11.6082 24.7174 11.238 24.7061C11.3494 24.774 11.4611 24.8425 11.5725 24.9102C11.9122 25.1171 12.2669 25.2985 12.6504 25.4663C13.3404 25.7685 14.0758 25.9964 14.8897 26.1987C16.5309 26.6062 18.8462 26.423 20.2788 25.9763C24.2684 24.7319 26.7885 21.8275 27.7399 17.5498C27.9035 16.814 27.9273 15.9783 27.9166 15.1026C28.115 14.9449 28.3131 14.7873 28.5112 14.6297C29.0023 14.2361 29.4627 13.6875 29.8026 13.1464V13.1371C29.1552 13.3403 28.4735 13.7133 27.6468 13.722Z" fill="black"/>
</g>
<defs>
<clipPath id="clip0_1_358">
<rect width="38" height="38" fill="white"/>
</clipPath>
</defs>
</svg>
